<svg xmlns="http://www.w3.org/2000/svg" data-name="Layer 1" viewBox="0 0 64 64"><path fill="#2a2f63" d="M54.06,23.44a10.46,10.46,0,0,0-10.44-10,10.22,10.22,0,0,0-3.34.55,13.19,13.19,0,0,0-24,.37A9.1,9.1,0,0,0,14,14.12a9,9,0,0,0-8.95,9,8.4,8.4,0,0,0,.18,1.76A10.43,10.43,0,0,0,10.44,44.3H16a15.9,15.9,0,0,0,31.33,0h6.2a10.44,10.44,0,0,0,.49-20.86ZM31.7,56.51A14.93,14.93,0,1,1,46.63,41.58,14.94,14.94,0,0,1,31.7,56.51Zm21.87-13.2h-6a16.41,16.41,0,0,0,.1-1.73,15.92,15.92,0,0,0-31.83,0,16.41,16.41,0,0,0,.1,1.73H10.44A9.44,9.44,0,0,1,6,25.52.49.49,0,0,0,6.25,25,7.71,7.71,0,0,1,6,23.07a8,8,0,0,1,8-8,7.65,7.65,0,0,1,2.41.38.49.49,0,0,0,.62-.29,12.21,12.21,0,0,1,22.55-.34.5.5,0,0,0,.63.26,9.46,9.46,0,0,1,12.88,8.82.5.5,0,0,0,.49.49,9.45,9.45,0,1,1,0,18.89Z"/><path fill="#ffdc7c" d="M31.7,26.65A14.93,14.93,0,1,0,46.63,41.58,14.95,14.95,0,0,0,31.7,26.65ZM31,44.57,26.5,50.15a.53.53,0,0,1-.39.18.51.51,0,0,1-.38-.18L21.2,44.57a.49.49,0,0,1-.06-.52.48.48,0,0,1,.44-.28h2.08V33.33a.49.49,0,0,1,.49-.49h3.92a.49.49,0,0,1,.49.49V43.77h2.08a.46.46,0,0,1,.44.28A.51.51,0,0,1,31,44.57Zm10.8-5.17H39.75V49.84a.49.49,0,0,1-.49.49H35.34a.49.49,0,0,1-.49-.49V39.4H32.77a.49.49,0,0,1-.45-.28.54.54,0,0,1,.06-.52L36.91,33a.52.52,0,0,1,.77,0l4.53,5.58a.49.49,0,0,1,.06.52A.48.48,0,0,1,41.83,39.4Z"/><path fill="#f4cf73" d="M45.22,47.89A15.32,15.32,0,0,1,43,51.35a14.91,14.91,0,0,1-21-21,14.31,14.31,0,0,1,3.35-2.21A14.51,14.51,0,0,0,24,32.89a.47.47,0,0,0-.29.44V43.77H21.58a.48.48,0,0,0-.44.28.49.49,0,0,0,.06.52l4.53,5.58a.51.51,0,0,0,.38.18.53.53,0,0,0,.39-.18l1.06-1.31,2.12-2.6a14.87,14.87,0,0,0,5.17,2.58v1a.49.49,0,0,0,.49.49h3.92a.49.49,0,0,0,.49-.49v-.52A14.76,14.76,0,0,0,45.22,47.89Z"/><path fill="#eac36c" d="M43,51.35a14.92,14.92,0,1,1-21-21,14.91,14.91,0,0,0,21,21Z"/><path fill="#a0d2f1" d="M63,33.87a9.46,9.46,0,0,1-9.45,9.44h-6a16.41,16.41,0,0,0,.1-1.73,15.92,15.92,0,0,0-31.83,0,16.41,16.41,0,0,0,.1,1.73H10.44A9.44,9.44,0,0,1,6,25.52.49.49,0,0,0,6.25,25,7.71,7.71,0,0,1,6,23.07a8,8,0,0,1,8-8,7.65,7.65,0,0,1,2.41.38.49.49,0,0,0,.62-.29,12.21,12.21,0,0,1,22.55-.34.5.5,0,0,0,.63.26,9.46,9.46,0,0,1,12.88,8.82.5.5,0,0,0,.49.49A9.46,9.46,0,0,1,63,33.87Z"/><path fill="#8dc0d6" d="M37.26,11.34a12.19,12.19,0,0,0-17.74,5.88.51.51,0,0,1-.63.29,7.65,7.65,0,0,0-2.41-.38,8,8,0,0,0-8,8A8.23,8.23,0,0,0,8.74,27a.49.49,0,0,1-.24.56A9.44,9.44,0,0,0,5.8,42.09,9.43,9.43,0,0,1,6,25.52.49.49,0,0,0,6.25,25,7.71,7.71,0,0,1,6,23.07a8,8,0,0,1,8-8,7.65,7.65,0,0,1,2.41.38.49.49,0,0,0,.62-.29,12.2,12.2,0,0,1,20.24-3.85Z"/><path fill="#93cae5" d="M39.21,14.09a12.14,12.14,0,0,0-11.3,7.7.5.5,0,0,1-.62.29,7.65,7.65,0,0,0-2.41-.38,8,8,0,0,0-8,8,7.71,7.71,0,0,0,.22,1.89.49.49,0,0,1-.24.56,9.39,9.39,0,0,0-5,8.35,9.53,9.53,0,0,0,.44,2.84H10.44A9.33,9.33,0,0,1,5.8,42.09,9.44,9.44,0,0,1,8.5,27.55.49.49,0,0,0,8.74,27a8.23,8.23,0,0,1-.22-1.89,8,8,0,0,1,8-8,7.65,7.65,0,0,1,2.41.38.51.51,0,0,0,.63-.29,12.19,12.19,0,0,1,17.74-5.88A11.91,11.91,0,0,1,39.21,14.09Z"/><path fill="#2a2f63" d="M31.08,44.05a.46.46,0,0,0-.44-.28H28.56V33.33a.49.49,0,0,0-.49-.49H24.15a.49.49,0,0,0-.49.49V43.77H21.58a.48.48,0,0,0-.44.28.49.49,0,0,0,.06.52l4.53,5.58a.51.51,0,0,0,.38.18.53.53,0,0,0,.39-.18L31,44.57A.51.51,0,0,0,31.08,44.05Zm-5,5-3.49-4.3h1.53a.48.48,0,0,0,.49-.49V33.82h2.94V44.26a.49.49,0,0,0,.49.49h1.54Z"/><path fill="#ea625c" d="M29.61,44.75l-3.5,4.3-3.49-4.3h1.53a.48.48,0,0,0,.49-.49V33.82h2.94V44.26a.49.49,0,0,0,.49.49Z"/><path fill="#e15e5a" d="M25.08,33.82V44.26c0,.27-.15.49-.35.49h-.58a.48.48,0,0,0,.49-.49V33.82Z"/><polygon fill="#e15e5a" points="26.11 49.05 22.62 44.75 23.66 44.75 26.11 49.05"/><path fill="#f26e61" d="M28.07,44.75h-.58c-.2,0-.34-.22-.34-.49V33.82h.43V44.26A.49.49,0,0,0,28.07,44.75Z"/><polygon fill="#f26e61" points="29.61 44.75 26.11 49.05 28.56 44.75 29.61 44.75"/><path fill="#2a2f63" d="M42.21,38.6,37.68,33a.52.52,0,0,0-.77,0L32.38,38.6a.54.54,0,0,0-.06.52.49.49,0,0,0,.45.28h2.08V49.84a.49.49,0,0,0,.49.49h3.92a.49.49,0,0,0,.49-.49V39.4h2.08a.48.48,0,0,0,.44-.28A.49.49,0,0,0,42.21,38.6Zm-3-.18a.49.49,0,0,0-.5.49V49.35H35.83V38.91a.49.49,0,0,0-.49-.49H33.8l3.5-4.3,3.49,4.3Z"/><path fill="#47b28e" d="M40.79,38.42H39.26a.49.49,0,0,0-.5.49V49.35H35.83V38.91a.49.49,0,0,0-.49-.49H33.8l3.5-4.3Z"/><polygon fill="#3ba580" points="37.3 34.12 34.85 38.42 33.8 38.42 37.3 34.12"/><path fill="#3ba580" d="M36.26,38.91V49.35h-.43V38.91a.49.49,0,0,0-.49-.49h.58C36.12,38.42,36.26,38.64,36.26,38.91Z"/><polygon fill="#53bf9f" points="40.79 38.42 39.75 38.42 37.3 34.12 40.79 38.42"/><path fill="#53bf9f" d="M39.26,38.42a.49.49,0,0,0-.5.49V49.35h-.43V38.91c0-.27.15-.49.35-.49Z"/></svg>