<svg xmlns="http://www.w3.org/2000/svg" data-name="Layer 1" viewBox="0 0 512 512"><path fill="#e1e1e3" d="M372.5,504.5H61.5a30,30,0,0,1-30-30V37.5a30,30,0,0,1,30-30h246l95,95v372A30,30,0,0,1,372.5,504.5Z"/><rect width="60" height="60" x="76.5" y="86.5" fill="#a8d9f5" rx="15"/><path fill="#83c9ee" d="M121.5,86.5h-20a15,15,0,0,1,15,15v30a15,15,0,0,1-15,15h20a15,15,0,0,0,15-15v-30A15,15,0,0,0,121.5,86.5Z"/><rect width="60" height="60" x="76.5" y="191.5" fill="#a8d9f5" rx="15"/><rect width="60" height="60" x="76.5" y="296.5" fill="#a8d9f5" rx="15"/><path fill="#83c9ee" d="M121.5,191.5h-20a15,15,0,0,1,15,15v30a15,15,0,0,1-15,15h20a15,15,0,0,0,15-15v-30A15,15,0,0,0,121.5,191.5Z"/><rect width="60" height="60" x="76.5" y="401.5" fill="#a8d9f5" rx="15"/><path fill="#83c9ee" d="M121.5 296.5h-20a15 15 0 0 1 15 15v30a15 15 0 0 1-15 15h20a15 15 0 0 0 15-15v-30A15 15 0 0 0 121.5 296.5zM121.5 401.5h-20a15 15 0 0 1 15 15v30a15 15 0 0 1-15 15h20a15 15 0 0 0 15-15v-30A15 15 0 0 0 121.5 401.5z"/><path fill="#dadadc" d="M402.5,117.5h-65a30,30,0,0,1-30-30v-65l95,80Z"/><path fill="#c8c5cc" d="M402.5,102.5h-65a30,30,0,0,1-30-30V7.5"/><path fill="#138b4c" d="M391.31,504.5a89.18,89.18,0,1,1,63.07-26.12A88.61,88.61,0,0,1,391.31,504.5Z"/><path fill="#107f47" d="M454.38,352.25a88.59,88.59,0,0,0-63.07-26.12,89.93,89.93,0,0,0-15,1.27,89.18,89.18,0,0,1,0,175.83,91,91,0,0,0,15,1.27,89.19,89.19,0,0,0,63.07-152.25Z"/><path fill="#3c3b41" d="M121.5,393.93h-30A22.52,22.52,0,0,0,69,416.43v30a22.52,22.52,0,0,0,22.5,22.5h30a22.53,22.53,0,0,0,22.5-22.5v-30A22.53,22.53,0,0,0,121.5,393.93Zm7.5,52.5a7.51,7.51,0,0,1-7.5,7.5h-30a7.5,7.5,0,0,1-7.5-7.5v-30a7.5,7.5,0,0,1,7.5-7.5h30a7.51,7.51,0,0,1,7.5,7.5Zm37.5-202.5h66a7.5,7.5,0,0,0,0-15h-66a7.5,7.5,0,0,0,0,15Zm0-105h126a7.5,7.5,0,0,0,0-15h-126a7.5,7.5,0,0,0,0,15Zm0,75h186a7.5,7.5,0,0,0,0-15h-186a7.5,7.5,0,0,0,0,15Zm0,105h156a7.5,7.5,0,0,0,0-15h-156a7.5,7.5,0,0,0,0,15Zm0,105h91.68a7.5,7.5,0,0,0,0-15H166.5a7.5,7.5,0,0,0,0,15Zm243.55-.49-11.24,11.24v-57a7.5,7.5,0,0,0-15,0v57l-11.24-11.24A7.5,7.5,0,1,0,362,434.05l24,24,.56.5.23.17.36.27.3.18.33.19.32.16.34.16.32.11a3.3,3.3,0,0,0,.37.13l.33.09.39.09c.12,0,.25,0,.38.06l.34.05c.25,0,.49,0,.74,0s.49,0,.74,0l.34-.05c.13,0,.26,0,.38-.06l.39-.09.33-.09a3.3,3.3,0,0,0,.37-.13l.32-.11.34-.16.32-.16.33-.19.3-.18.36-.27.23-.17.56-.5,24-24a7.5,7.5,0,1,0-10.6-10.61ZM277.51,333.93h-111a7.5,7.5,0,0,0,0,15h111a7.5,7.5,0,0,0,0-15Zm182.17,12.95A96.06,96.06,0,0,0,410,320.35V102.43c0-.25,0-.5,0-.75s0-.36-.08-.54l0-.19c0-.21-.1-.43-.16-.64a.64.64,0,0,1,0-.07,5.33,5.33,0,0,0-.23-.63.08.08,0,0,0,0,0,6.11,6.11,0,0,0-.27-.58.36.36,0,0,0,0-.09,4.94,4.94,0,0,0-.3-.49.64.64,0,0,0-.08-.14c-.1-.15-.21-.29-.32-.43l-.12-.16a5.14,5.14,0,0,0-.38-.42,1.31,1.31,0,0,0-.11-.12l-95-95L312.68,2c-.14-.14-.28-.26-.42-.39l-.16-.12-.43-.31-.14-.09L311,.82l-.1,0c-.18-.09-.37-.19-.57-.27l-.06,0a5.83,5.83,0,0,0-.63-.22l-.07,0c-.21-.06-.42-.12-.64-.16a1.13,1.13,0,0,0-.18,0L308.24,0a6,6,0,0,0-.74,0H61.5A37.54,37.54,0,0,0,24,37.43v437a37.54,37.54,0,0,0,37.5,37.5h326a7.89,7.89,0,0,0,.84-.05c1,0,2,.05,3,.05a96.68,96.68,0,0,0,68.37-165ZM315,25.54l69.39,69.39H337.5A22.52,22.52,0,0,1,315,72.43ZM61.5,496.93A22.52,22.52,0,0,1,39,474.43v-437a22.52,22.52,0,0,1,22.5-22.5H300v57.5a37.28,37.28,0,0,0,7.52,22.5h-141a7.5,7.5,0,0,0,0,15H395v208.7c-1.23,0-2.46-.07-3.69-.07a96.68,96.68,0,0,0-68.37,165.05,97.73,97.73,0,0,0,16.58,13.32ZM449.07,473A81.67,81.67,0,1,1,473,415.24,81.15,81.15,0,0,1,449.07,473ZM121.5,78.93h-30A22.52,22.52,0,0,0,69,101.43v30a22.52,22.52,0,0,0,22.5,22.5h30a22.53,22.53,0,0,0,22.5-22.5v-30A22.53,22.53,0,0,0,121.5,78.93Zm7.5,52.5a7.51,7.51,0,0,1-7.5,7.5h-30a7.5,7.5,0,0,1-7.5-7.5v-30a7.5,7.5,0,0,1,7.5-7.5h30a7.51,7.51,0,0,1,7.5,7.5Zm129.58,307.5H166.5a7.5,7.5,0,0,0,0,15h92.08a7.5,7.5,0,0,0,0-15Zm-137.08-255h-30A22.52,22.52,0,0,0,69,206.43v30a22.52,22.52,0,0,0,22.5,22.5h30a22.53,22.53,0,0,0,22.5-22.5v-30A22.53,22.53,0,0,0,121.5,183.93Zm7.5,52.5a7.51,7.51,0,0,1-7.5,7.5h-30a7.5,7.5,0,0,1-7.5-7.5v-30a7.5,7.5,0,0,1,7.5-7.5h30a7.51,7.51,0,0,1,7.5,7.5Zm-7.5,52.5h-30A22.52,22.52,0,0,0,69,311.43v30a22.52,22.52,0,0,0,22.5,22.5h30a22.53,22.53,0,0,0,22.5-22.5v-30A22.53,22.53,0,0,0,121.5,288.93Zm7.5,52.5a7.51,7.51,0,0,1-7.5,7.5h-30a7.5,7.5,0,0,1-7.5-7.5v-30a7.5,7.5,0,0,1,7.5-7.5h30a7.51,7.51,0,0,1,7.5,7.5Z"/></svg>